<svg width="35" height="40" viewBox="0 0 35 40" fill="none" xmlns="http://www.w3.org/2000/svg">
<mask id="mask0" mask-type="alpha" maskUnits="userSpaceOnUse" x="0" y="0" width="35" height="40">
<path d="M15.781 0.280931C15.2449 0.313938 14.7117 0.395132 14.1906 0.527402C13.7148 0.648108 13.2435 0.788812 12.7691 0.916264C8.35069 2.06165 4.97646 4.61237 2.58041 8.50027C0.416133 12.0111 -0.318945 15.8161 0.122921 19.8746C0.506723 23.3992 2.09204 26.3889 4.34739 29.0521C6.35314 31.4207 8.7169 33.3814 11.3086 35.084C13.9969 36.85 16.8596 38.2318 19.9296 39.1888C20.6875 39.4249 21.4662 39.568 22.2439 39.7162C22.4102 39.7477 22.5911 39.7781 22.7058 39.6082C22.8 39.469 22.7629 39.3251 22.7003 39.1926C22.633 39.0507 22.5386 38.9232 22.4381 38.8021C21.9225 38.1807 21.546 37.4798 21.2289 36.7421C20.8554 35.8726 20.9894 34.9137 22.2213 34.5937C25.4341 33.7589 28.0961 31.9871 30.2737 29.5096C33.4072 25.9441 34.8716 21.7495 34.6234 17.0217C34.3603 12.0121 32.3264 7.79145 28.5303 4.49143C25.216 1.61062 21.3645 0.240936 17.0685 0.240936C16.6435 0.240936 16.2146 0.254428 15.781 0.280931Z" fill="white"/>
</mask>
<g mask="url(#mask0)">
<path d="M35.8548 -0.963715L35.8541 16.7362L30.8911 16.6988L30.8405 16.6985C29.667 16.6985 28.5148 17.0161 27.5058 17.6184L26.2947 18.3419L25.0324 16.92C24.9307 16.806 24.817 16.7024 24.6934 16.6118C24.2263 16.269 23.6538 16.129 23.0816 16.2172C22.5092 16.3053 22.0051 16.6111 21.6625 17.0782L20.8708 18.1576L19.8025 14.257C19.6151 13.5715 19.0687 13.0463 18.3753 12.8865C17.8737 12.7719 17.3571 12.8581 16.9205 13.1316C16.484 13.4048 16.1804 13.8317 16.065 14.3333L15.1015 18.5236L14.5083 15.8623C14.3375 15.0978 13.7656 14.4829 13.016 14.2582C12.4607 14.0912 11.8745 14.1505 11.3647 14.4251C10.8546 14.6995 10.4819 15.1559 10.3152 15.7107L9.60831 18.0639L9.13922 16.6451C8.84456 15.7553 8.01745 15.1578 7.08047 15.1578H5.78234C5.11713 15.1578 4.57769 15.697 4.57769 16.3624C4.57769 17.0279 5.11713 17.5671 5.78234 17.5671H6.90628L8.28006 21.7212C8.53063 22.477 9.35003 22.8895 10.107 22.6389C10.554 22.491 10.9016 22.133 11.0368 21.6824L12.3573 17.2869L13.6759 23.2017C13.76 23.5785 13.9855 23.9002 14.3117 24.1074C14.5462 24.2565 14.8126 24.3331 15.0842 24.3331C15.1897 24.3331 15.2964 24.3216 15.402 24.298C15.9412 24.1775 16.3705 23.7518 16.4958 23.2111L17.9842 16.7385L18.8109 19.7559C18.9465 20.2525 19.2679 20.6664 19.7151 20.9216C20.1623 21.1762 20.6819 21.2415 21.1785 21.1061C21.5963 20.9919 21.9675 20.7363 22.2239 20.3869L23.429 18.7436L24.493 19.9417C25.2608 20.8054 26.5373 21.0025 27.5297 20.4103L28.7408 19.687C29.3851 19.3023 30.11 19.1028 30.8726 19.1081L35.8541 19.1455L35.8548 40.9454H-1.20459V-0.963715H35.8548Z" fill="#D2D9D6"/>
</g>
</svg>
